<svg width="186" height="46" viewBox="0 0 186 46" fill="none" xmlns="http://www.w3.org/2000/svg">
    <path fill="#fff" d="M13.2291 7.02616C13.147 6.19827 12.7946 5.55512 12.172 5.0967C11.5494 4.63828 10.7044 4.40907 9.63704 4.40907C8.91178 4.40907 8.29941 4.5117 7.79994 4.71696C7.30047 4.91538 6.91732 5.19249 6.65048 5.54827C6.39048 5.90406 6.26048 6.30774 6.26048 6.75932C6.2468 7.13563 6.32548 7.46405 6.49653 7.74458C6.67443 8.0251 6.91732 8.26799 7.22521 8.47325C7.5331 8.67167 7.88889 8.84615 8.29257 8.99667C8.69625 9.14035 9.1273 9.26351 9.58572 9.36614L11.4741 9.81772C12.391 10.023 13.2325 10.2967 13.9988 10.6388C14.7652 10.9809 15.4288 11.4017 15.9899 11.9011C16.5509 12.4006 16.9854 12.989 17.2933 13.6664C17.608 14.3437 17.7688 15.1203 17.7757 15.9961C17.7688 17.2824 17.4404 18.3977 16.7904 19.3419C16.1473 20.2792 15.2167 21.0079 13.9988 21.5279C12.7878 22.0411 11.327 22.2976 9.61651 22.2976C7.91968 22.2976 6.4418 22.0376 5.18286 21.5176C3.93076 20.9976 2.95235 20.2279 2.24762 19.2084C1.54973 18.1821 1.18368 16.9129 1.14947 15.4008L5.4497 15.4008C5.49759 16.1056 5.69943 16.694 6.05522 17.1661C6.41785 17.6313 6.90021 17.9837 7.50231 18.2232C8.11126 18.4558 8.79888 18.5721 9.56519 18.5721C10.3178 18.5721 10.9712 18.4627 11.5254 18.2437C12.0865 18.0248 12.521 17.7203 12.8289 17.3303C13.1367 16.9403 13.2907 16.4921 13.2907 15.9858C13.2907 15.5137 13.1504 15.1169 12.8699 14.7953C12.5962 14.4737 12.1925 14.2001 11.6589 13.9743C11.132 13.7485 10.4855 13.5432 9.71914 13.3585L7.43047 12.7837C5.65838 12.3527 4.25918 11.6788 3.23287 10.7619C2.20656 9.84509 1.69683 8.61009 1.70367 7.05695C1.69683 5.78433 2.03551 4.67249 2.71972 3.72145C3.41077 2.7704 4.35839 2.02804 5.56259 1.49436C6.76679 0.960676 8.13521 0.693835 9.66783 0.693835C11.2278 0.693835 12.5894 0.960676 13.7525 1.49436C14.9225 2.02804 15.8325 2.7704 16.4825 3.72145C17.1325 4.67249 17.4678 5.77406 17.4883 7.02616L13.2291 7.02616ZM43.8629 0.981201L48.3068 0.981201L48.3068 14.6311C48.3068 16.1637 47.9408 17.5048 47.2087 18.6542C46.4834 19.8037 45.4673 20.7 44.1605 21.3432C42.8537 21.9795 41.3313 22.2976 39.5934 22.2976C37.8487 22.2976 36.3229 21.9795 35.0161 21.3432C33.7093 20.7 32.6932 19.8037 31.968 18.6542C31.2427 17.5048 30.8801 16.1637 30.8801 14.6311L30.8801 0.981201L35.324 0.981201L35.324 14.2514C35.324 15.0519 35.4985 15.7635 35.8474 16.3861C36.2032 17.0087 36.7027 17.4979 37.3458 17.8537C37.989 18.2095 38.7382 18.3874 39.5934 18.3874C40.4555 18.3874 41.2047 18.2095 41.8411 17.8537C42.4842 17.4979 42.9803 17.0087 43.3292 16.3861C43.685 15.7635 43.8629 15.0519 43.8629 14.2514L43.8629 0.981201ZM79.659 0.981201L79.659 22L75.8206 22L66.6762 8.77088L66.5222 8.77088L66.5222 22L62.0783 22L62.0783 0.981201L65.9783 0.981201L75.0509 14.2001L75.2356 14.2001L75.2356 0.981201L79.659 0.981201ZM93.4459 22L93.4459 0.981201L101.738 0.9812C103.326 0.9812 104.681 1.26515 105.803 1.83304C106.932 2.39409 107.79 3.19118 108.379 4.22434C108.974 5.25064 109.272 6.45827 109.272 7.8472C109.272 9.24298 108.971 10.4438 108.368 11.4495C107.766 12.4485 106.894 13.2148 105.751 13.7485C104.616 14.2822 103.24 14.549 101.626 14.549L96.0733 14.549L96.0733 10.9774L100.907 10.9774C101.756 10.9774 102.46 10.8611 103.021 10.6285C103.582 10.3959 104 10.0469 104.273 9.58167C104.554 9.11641 104.694 8.53825 104.694 7.8472C104.694 7.14931 104.554 6.5609 104.273 6.08195C104 5.60301 103.579 5.24038 103.011 4.99407C102.45 4.74091 101.742 4.61433 100.887 4.61433L97.8898 4.61433L97.8898 22L93.4459 22ZM104.797 12.4348L110.021 22L105.115 22L100.004 12.4348L104.797 12.4348ZM126.971 0.9812L126.971 22L122.527 22L122.527 0.9812L126.971 0.9812ZM152.145 7.02616C152.063 6.19827 151.711 5.55511 151.088 5.0967C150.465 4.63828 149.62 4.40907 148.553 4.40907C147.828 4.40907 147.215 4.5117 146.716 4.71696C146.216 4.91538 145.833 5.19249 145.566 5.54827C145.306 5.90406 145.176 6.30774 145.176 6.75932C145.163 7.13563 145.241 7.46405 145.413 7.74457C145.59 8.0251 145.833 8.26799 146.141 8.47325C146.449 8.67167 146.805 8.84614 147.209 8.99667C147.612 9.14035 148.043 9.26351 148.502 9.36614L150.39 9.81772C151.307 10.023 152.149 10.2967 152.915 10.6388C153.681 10.9809 154.345 11.4017 154.906 11.9011C155.467 12.4006 155.901 12.989 156.209 13.6664C156.524 14.3437 156.685 15.1203 156.692 15.9961C156.685 17.2824 156.356 18.3977 155.706 19.3419C155.063 20.2792 154.133 21.0079 152.915 21.5279C151.704 22.0411 150.243 22.2976 148.532 22.2976C146.836 22.2976 145.358 22.0376 144.099 21.5176C142.847 20.9976 141.868 20.2279 141.164 19.2084C140.466 18.1821 140.1 16.9129 140.065 15.4008L144.366 15.4008C144.414 16.1056 144.615 16.694 144.971 17.1661C145.334 17.6313 145.816 17.9837 146.418 18.2232C147.027 18.4558 147.715 18.5721 148.481 18.5721C149.234 18.5721 149.887 18.4627 150.441 18.2437C151.002 18.0248 151.437 17.7203 151.745 17.3303C152.053 16.9403 152.207 16.4921 152.207 15.9858C152.207 15.5137 152.066 15.1169 151.786 14.7953C151.512 14.4737 151.109 14.2001 150.575 13.9743C150.048 13.7485 149.401 13.5432 148.635 13.3585L146.346 12.7837C144.574 12.3527 143.175 11.6788 142.149 10.7619C141.123 9.84508 140.613 8.61009 140.62 7.05695C140.613 5.78432 140.951 4.67249 141.636 3.72144C142.327 2.7704 143.274 2.02803 144.479 1.49435C145.683 0.960674 147.051 0.693833 148.584 0.693833C150.144 0.693833 151.505 0.960673 152.669 1.49435C153.839 2.02803 154.749 2.7704 155.398 3.72144C156.048 4.67249 156.384 5.77406 156.404 7.02616L152.145 7.02616ZM169.796 22L169.796 0.981199L183.959 0.981199L183.959 4.64512L174.24 4.64512L174.24 9.65351L183.23 9.65351L183.23 13.3174L174.24 13.3174L174.24 18.3361L184 18.3361L184 22L169.796 22Z" fill="black"/>
    <path fill="#fff" d="M31.1186 41.0642V30.8824H34.7479C35.54 30.8824 36.1963 31.0266 36.7166 31.3149C37.237 31.6033 37.6264 31.9977 37.8849 32.4982C38.1435 32.9953 38.2727 33.5554 38.2727 34.1786C38.2727 34.805 38.1418 35.3684 37.88 35.8689C37.6214 36.3661 37.2304 36.7605 36.7067 37.0521C36.1863 37.3405 35.5317 37.4847 34.7429 37.4847H32.2472V36.1821H34.6037C35.1042 36.1821 35.5102 36.0959 35.8217 35.9236C36.1333 35.7479 36.362 35.5093 36.5078 35.2077C36.6536 34.9061 36.7266 34.563 36.7266 34.1786C36.7266 33.7941 36.6536 33.4527 36.5078 33.1544C36.362 32.8561 36.1316 32.6224 35.8168 32.4534C35.5052 32.2844 35.0942 32.1999 34.5838 32.1999H32.6548V41.0642H31.1186ZM40.0737 41.0642V30.8824H43.7029C44.4918 30.8824 45.1464 31.0183 45.6667 31.2901C46.1904 31.5618 46.5815 31.938 46.84 32.4186C47.0985 32.8959 47.2278 33.4477 47.2278 34.0742C47.2278 34.6973 47.0969 35.2458 46.835 35.7197C46.5765 36.1904 46.1854 36.5566 45.6618 36.8185C45.1414 37.0803 44.4868 37.2112 43.698 37.2112H40.9487V35.8888H43.5588C44.0559 35.8888 44.4603 35.8175 44.7718 35.675C45.0867 35.5325 45.3171 35.3253 45.4629 35.0536C45.6087 34.7818 45.6816 34.4553 45.6816 34.0742C45.6816 33.6897 45.6071 33.3566 45.4579 33.0749C45.3121 32.7931 45.0817 32.5777 44.7669 32.4286C44.4553 32.2761 44.046 32.1999 43.5389 32.1999H41.6099V41.0642H40.0737ZM45.1 36.4705L47.6156 41.0642H45.8656L43.3997 36.4705H45.1ZM57.9416 35.9733C57.9416 37.0604 57.7427 37.9951 57.345 38.7773C56.9473 39.5562 56.402 40.1561 55.7093 40.577C55.0199 40.9946 54.2361 41.2034 53.3578 41.2034C52.4761 41.2034 51.689 40.9946 50.9963 40.577C50.3069 40.1561 49.7633 39.5545 49.3656 38.7723C48.9679 37.9901 48.769 37.0571 48.769 35.9733C48.769 34.8862 48.9679 33.9532 49.3656 33.1743C49.7633 32.3921 50.3069 31.7922 50.9963 31.3746C51.689 30.9536 52.4761 30.7432 53.3578 30.7432C54.2361 30.7432 55.0199 30.9536 55.7093 31.3746C56.402 31.7922 56.9473 32.3921 57.345 33.1743C57.7427 33.9532 57.9416 34.8862 57.9416 35.9733ZM56.4203 35.9733C56.4203 35.1447 56.286 34.447 56.0176 33.8803C55.7524 33.3102 55.3878 32.8793 54.9238 32.5876C54.4631 32.2927 53.9411 32.1452 53.3578 32.1452C52.7711 32.1452 52.2475 32.2927 51.7868 32.5876C51.3261 32.8793 50.9615 33.3102 50.693 33.8803C50.4279 34.447 50.2953 35.1447 50.2953 35.9733C50.2953 36.8019 50.4279 37.5012 50.693 38.0713C50.9615 38.6381 51.3261 39.0689 51.7868 39.3639C52.2475 39.6556 52.7711 39.8014 53.3578 39.8014C53.9411 39.8014 54.4631 39.6556 54.9238 39.3639C55.3878 39.0689 55.7524 38.6381 56.0176 38.0713C56.286 37.5012 56.4203 36.8019 56.4203 35.9733ZM63.1531 41.0642H59.8569V30.8824H63.2575C64.2551 30.8824 65.1119 31.0862 65.8278 31.4939C66.5437 31.8983 67.0922 32.4799 67.4734 33.2389C67.8578 33.9946 68.0501 34.9011 68.0501 35.9584C68.0501 37.019 67.8562 37.9304 67.4684 38.6928C67.0839 39.4551 66.5271 40.0417 65.7979 40.4527C65.0688 40.8604 64.1871 41.0642 63.1531 41.0642ZM61.3931 39.7219H63.0685C63.8441 39.7219 64.4888 39.576 65.0025 39.2844C65.5162 38.9894 65.9007 38.5635 66.1559 38.0067C66.4111 37.4465 66.5387 36.7638 66.5387 35.9584C66.5387 35.1596 66.4111 34.4818 66.1559 33.925C65.904 33.3682 65.5278 32.9456 65.0273 32.6572C64.5269 32.3689 63.9054 32.2247 63.163 32.2247H61.3931V39.7219ZM76.508 30.8824H78.0492V37.5791C78.0492 38.2917 77.8818 38.9231 77.5471 39.4733C77.2123 40.0202 76.7417 40.451 76.1351 40.7659C75.5286 41.0775 74.8176 41.2332 74.0023 41.2332C73.1903 41.2332 72.481 41.0775 71.8745 40.7659C71.2679 40.451 70.7973 40.0202 70.4625 39.4733C70.1278 38.9231 69.9604 38.2917 69.9604 37.5791V30.8824H71.4966V37.4548C71.4966 37.9155 71.5977 38.3249 71.7999 38.6828C72.0054 39.0408 72.2954 39.3225 72.6699 39.528C73.0444 39.7302 73.4886 39.8313 74.0023 39.8313C74.5194 39.8313 74.9651 39.7302 75.3397 39.528C75.7175 39.3225 76.0059 39.0408 76.2047 38.6828C76.4069 38.3249 76.508 37.9155 76.508 37.4548V30.8824ZM88.7393 34.1935H87.1882C87.1286 33.862 87.0175 33.5704 86.8551 33.3185C86.6927 33.0666 86.4938 32.8528 86.2585 32.6771C86.0232 32.5015 85.7597 32.3689 85.468 32.2794C85.1797 32.1899 84.8731 32.1452 84.5483 32.1452C83.9616 32.1452 83.4363 32.2927 82.9723 32.5876C82.5116 32.8826 82.147 33.3152 81.8786 33.8852C81.6134 34.4553 81.4808 35.1513 81.4808 35.9733C81.4808 36.8019 81.6134 37.5012 81.8786 38.0713C82.147 38.6414 82.5133 39.0723 82.9773 39.3639C83.4413 39.6556 83.9633 39.8014 84.5433 39.8014C84.8648 39.8014 85.1697 39.7583 85.4581 39.6722C85.7498 39.5827 86.0133 39.4518 86.2486 39.2794C86.4839 39.1071 86.6828 38.8966 86.8452 38.648C87.0109 38.3961 87.1252 38.1078 87.1882 37.783L88.7393 37.7879C88.6565 38.2884 88.4957 38.7491 88.2571 39.17C88.0218 39.5876 87.7185 39.9489 87.3473 40.2538C86.9794 40.5554 86.5585 40.7891 86.0845 40.9548C85.6106 41.1206 85.0935 41.2034 84.5334 41.2034C83.6518 41.2034 82.8662 40.9946 82.1768 40.577C81.4875 40.1561 80.9439 39.5545 80.5462 38.7723C80.1518 37.9901 79.9545 37.0571 79.9545 35.9733C79.9545 34.8862 80.1534 33.9532 80.5511 33.1743C80.9489 32.3921 81.4924 31.7922 82.1818 31.3746C82.8712 30.9536 83.6551 30.7432 84.5334 30.7432C85.0736 30.7432 85.5774 30.8211 86.0447 30.9769C86.5154 31.1293 86.938 31.3547 87.3125 31.653C87.687 31.948 87.9969 32.3092 88.2422 32.7368C88.4875 33.161 88.6532 33.6466 88.7393 34.1935ZM90.0755 32.2048V30.8824H97.9554V32.2048H94.7786V41.0642H93.2473V32.2048H90.0755ZM108.955 33.5571C108.902 33.0865 108.683 32.7219 108.299 32.4634C107.914 32.2015 107.43 32.0706 106.847 32.0706C106.43 32.0706 106.068 32.1369 105.763 32.2695C105.458 32.3987 105.221 32.5777 105.052 32.8064C104.887 33.0318 104.804 33.2886 104.804 33.577C104.804 33.8189 104.86 34.0278 104.973 34.2034C105.089 34.3791 105.24 34.5266 105.425 34.6459C105.614 34.7619 105.816 34.8597 106.032 34.9392C106.247 35.0154 106.454 35.0784 106.653 35.1281L107.648 35.3867C107.972 35.4662 108.305 35.5739 108.647 35.7098C108.988 35.8457 109.305 36.0247 109.596 36.2467C109.888 36.4688 110.123 36.7439 110.302 37.072C110.485 37.4001 110.576 37.7929 110.576 38.2503C110.576 38.827 110.427 39.3391 110.128 39.7865C109.833 40.234 109.404 40.5869 108.841 40.8455C108.281 41.104 107.603 41.2332 106.807 41.2332C106.045 41.2332 105.385 41.1123 104.829 40.8703C104.272 40.6284 103.836 40.2853 103.521 39.8412C103.206 39.3938 103.032 38.8635 102.999 38.2503H104.54C104.57 38.6182 104.689 38.9248 104.898 39.17C105.11 39.412 105.381 39.5926 105.709 39.7119C106.04 39.8279 106.403 39.8859 106.797 39.8859C107.232 39.8859 107.618 39.818 107.956 39.6821C108.297 39.5429 108.566 39.3507 108.761 39.1054C108.957 38.8568 109.055 38.5668 109.055 38.2354C109.055 37.9338 108.968 37.6868 108.796 37.4946C108.627 37.3024 108.397 37.1433 108.105 37.0173C107.817 36.8914 107.49 36.7804 107.126 36.6842L105.922 36.3561C105.107 36.134 104.461 35.8076 103.983 35.3767C103.51 34.9458 103.273 34.3758 103.273 33.6665C103.273 33.0798 103.432 32.5678 103.75 32.1303C104.068 31.6928 104.499 31.353 105.042 31.1111C105.586 30.8658 106.199 30.7432 106.882 30.7432C107.571 30.7432 108.18 30.8642 108.706 31.1061C109.237 31.3481 109.654 31.6812 109.959 32.1054C110.264 32.5263 110.423 33.0102 110.437 33.5571H108.955ZM111.909 32.2048V30.8824H119.789V32.2048H116.613V41.0642H115.081V32.2048H111.909ZM128.078 30.8824H129.619V37.5791C129.619 38.2917 129.452 38.9231 129.117 39.4733C128.783 40.0202 128.312 40.451 127.705 40.7659C127.099 41.0775 126.388 41.2332 125.573 41.2332C124.761 41.2332 124.051 41.0775 123.445 40.7659C122.838 40.451 122.368 40.0202 122.033 39.4733C121.698 38.9231 121.531 38.2917 121.531 37.5791V30.8824H123.067V37.4548C123.067 37.9155 123.168 38.3249 123.37 38.6828C123.576 39.0408 123.866 39.3225 124.24 39.528C124.615 39.7302 125.059 39.8313 125.573 39.8313C126.09 39.8313 126.535 39.7302 126.91 39.528C127.288 39.3225 127.576 39.0408 127.775 38.6828C127.977 38.3249 128.078 37.9155 128.078 37.4548V30.8824ZM135.149 41.0642H131.853V30.8824H135.254C136.251 30.8824 137.108 31.0862 137.824 31.4939C138.54 31.8983 139.088 32.4799 139.469 33.2389C139.854 33.9946 140.046 34.9011 140.046 35.9584C140.046 37.019 139.852 37.9304 139.464 38.6928C139.08 39.4551 138.523 40.0417 137.794 40.4527C137.065 40.8604 136.183 41.0642 135.149 41.0642ZM133.389 39.7219H135.065C135.84 39.7219 136.485 39.576 136.999 39.2844C137.512 38.9894 137.897 38.5635 138.152 38.0067C138.407 37.4465 138.535 36.7638 138.535 35.9584C138.535 35.1596 138.407 34.4818 138.152 33.925C137.9 33.3682 137.524 32.9456 137.023 32.6572C136.523 32.3689 135.902 32.2247 135.159 32.2247H133.389V39.7219ZM143.493 30.8824V41.0642H141.956V30.8824H143.493ZM154.574 35.9733C154.574 37.0604 154.376 37.9951 153.978 38.7773C153.58 39.5562 153.035 40.1561 152.342 40.577C151.653 40.9946 150.869 41.2034 149.991 41.2034C149.109 41.2034 148.322 40.9946 147.629 40.577C146.94 40.1561 146.396 39.5545 145.998 38.7723C145.601 37.9901 145.402 37.0571 145.402 35.9733C145.402 34.8862 145.601 33.9532 145.998 33.1743C146.396 32.3921 146.94 31.7922 147.629 31.3746C148.322 30.9536 149.109 30.7432 149.991 30.7432C150.869 30.7432 151.653 30.9536 152.342 31.3746C153.035 31.7922 153.58 32.3921 153.978 33.1743C154.376 33.9532 154.574 34.8862 154.574 35.9733ZM153.053 35.9733C153.053 35.1447 152.919 34.447 152.65 33.8803C152.385 33.3102 152.021 32.8793 151.557 32.5876C151.096 32.2927 150.574 32.1452 149.991 32.1452C149.404 32.1452 148.88 32.2927 148.42 32.5876C147.959 32.8793 147.594 33.3102 147.326 33.8803C147.061 34.447 146.928 35.1447 146.928 35.9733C146.928 36.8019 147.061 37.5012 147.326 38.0713C147.594 38.6381 147.959 39.0689 148.42 39.3639C148.88 39.6556 149.404 39.8014 149.991 39.8014C150.574 39.8014 151.096 39.6556 151.557 39.3639C152.021 39.0689 152.385 38.6381 152.65 38.0713C152.919 37.5012 153.053 36.8019 153.053 35.9733Z" fill="black"/>
</svg>
