<svg width="161" height="335" viewBox="0 0 161 335" fill="none" xmlns="http://www.w3.org/2000/svg">
<path d="M120.28 310.599C120.28 317.426 118.36 322.589 114.52 326.087C110.595 329.586 105.005 331.335 97.752 331.335L92.632 331.335L92.632 318.023L98.776 318.023C104.579 318.023 107.48 315.591 107.48 310.727C107.48 308.338 106.797 306.546 105.432 305.351C103.981 304.071 101.677 303.431 98.52 303.431C94.7653 303.431 91.48 304.285 88.664 305.991C85.7627 307.698 82.3067 310.855 78.296 315.463C73.176 321.266 68.568 325.319 64.472 327.623C60.2907 329.927 55.5973 331.079 50.392 331.079C43.3093 331.079 37.848 329.287 34.008 325.703C30.0827 322.119 28.12 316.914 28.12 310.087C28.12 303.346 30.0827 298.269 34.008 294.855C37.848 291.357 43.3947 289.607 50.648 289.607L54.36 289.607L54.36 302.919L49.752 302.919C46.68 302.919 44.4613 303.517 43.096 304.711C41.6453 305.906 40.92 307.655 40.92 309.959C40.92 314.653 43.7787 316.999 49.496 316.999C52.7387 316.999 55.768 316.146 58.584 314.439C61.4 312.647 64.8133 309.447 68.824 304.839C73.944 298.951 78.5947 294.898 82.776 292.679C86.9573 290.461 91.864 289.351 97.496 289.351C104.835 289.351 110.467 291.186 114.392 294.855C118.317 298.439 120.28 303.687 120.28 310.599ZM120.28 260.798C120.28 267.625 118.36 272.83 114.52 276.414C110.595 279.998 105.005 281.79 97.752 281.79L29.4 281.79L29.4 267.71L98.776 267.71C101.848 267.71 104.067 267.113 105.432 265.918C106.797 264.638 107.48 262.846 107.48 260.542C107.48 258.238 106.797 256.489 105.432 255.294C104.067 254.014 101.848 253.374 98.776 253.374L29.4 253.374L29.4 239.806L97.752 239.806C105.005 239.806 110.595 241.598 114.52 245.182C118.36 248.766 120.28 253.972 120.28 260.798ZM29.4 229.778L29.4 212.114L83.032 198.418L83.032 198.162L29.4 198.162L29.4 185.618L119 185.618L119 200.082L53.592 216.978L53.592 217.234L119 217.234L119 229.778L29.4 229.778ZM29.4 175.153L29.4 154.289C29.4 147.036 31.1067 141.745 34.52 138.417C37.848 135.089 43.0106 133.425 50.008 133.425L55.512 133.425C64.8133 133.425 70.7013 136.497 73.176 142.641L73.432 142.641C74.456 139.228 76.5467 136.839 79.704 135.473C82.8613 134.023 87.0853 133.297 92.376 133.297L108.12 133.297C110.68 133.297 112.771 133.212 114.392 133.041C115.928 132.871 117.464 132.444 119 131.761L119 146.097C117.549 146.609 116.184 146.951 114.904 147.121C113.624 147.292 111.32 147.377 107.992 147.377L91.608 147.377C87.512 147.377 84.6533 148.06 83.032 149.425C81.4107 150.705 80.6 152.967 80.6 156.209L80.6 161.073L119 161.073L119 175.153L29.4 175.153ZM67.8 155.953C67.8 153.137 67.0747 151.047 65.624 149.681C64.1733 148.231 61.7413 147.505 58.328 147.505L51.416 147.505C48.1733 147.505 45.8267 148.103 44.376 149.297C42.9253 150.407 42.2 152.199 42.2 154.673L42.2 161.073L67.8 161.073L67.8 155.953ZM29.4 123.528L29.4 109.448L119 109.448L119 123.528L29.4 123.528ZM120.28 80.5994C120.28 87.426 118.36 92.5887 114.52 96.0874C110.595 99.586 105.005 101.335 97.752 101.335L92.632 101.335L92.632 88.0234L98.776 88.0234C104.579 88.0234 107.48 85.5914 107.48 80.7274C107.48 78.338 106.797 76.546 105.432 75.3514C103.981 74.0714 101.677 73.4314 98.52 73.4314C94.7653 73.4314 91.48 74.2847 88.664 75.9914C85.7626 77.698 82.3066 80.8554 78.296 85.4634C73.176 91.266 68.568 95.3194 64.472 97.6234C60.2906 99.9274 55.5973 101.079 50.392 101.079C43.3093 101.079 37.848 99.2874 34.008 95.7034C30.0826 92.1194 28.12 86.914 28.12 80.0874C28.12 73.346 30.0826 68.2687 34.008 64.8554C37.848 61.3567 43.3946 59.6074 50.648 59.6074L54.36 59.6074L54.36 72.9194L49.752 72.9194C46.68 72.9194 44.4613 73.5167 43.096 74.7114C41.6453 75.906 40.92 77.6554 40.92 79.9594C40.92 84.6527 43.7786 86.9994 49.496 86.9994C52.7387 86.9994 55.768 86.146 58.584 84.4394C61.4 82.6474 64.8133 79.4474 68.824 74.8394C73.944 68.9514 78.5946 64.898 82.776 62.6794C86.9573 60.4607 91.864 59.3514 97.496 59.3514C104.835 59.3514 110.467 61.186 114.392 64.8554C118.317 68.4394 120.28 73.6874 120.28 80.5994ZM29.4 51.2784L29.4 12.8784L42.2 12.8784L42.2 37.1984L65.88 37.1984L65.88 17.8704L78.68 17.8704L78.68 37.1984L106.2 37.1984L106.2 12.8784L119 12.8784L119 51.2784L29.4 51.2784Z" fill="white"/>
<path d="M136.318 266.672C137.826 266.672 139.082 267.192 140.088 268.232C141.076 269.255 141.57 270.824 141.57 272.938L141.57 276.422L149.136 276.422L149.136 278.788L131.014 278.788L131.014 272.938C131.014 270.893 131.508 269.342 132.496 268.284C133.484 267.21 134.758 266.672 136.318 266.672ZM139.62 272.938C139.62 271.621 139.334 270.65 138.762 270.026C138.19 269.402 137.375 269.09 136.318 269.09C134.082 269.09 132.964 270.373 132.964 272.938L132.964 276.422L139.62 276.422L139.62 272.938ZM149.136 254.19L141.726 258.506L141.726 261.366L149.136 261.366L149.136 263.732L131.014 263.732L131.014 257.882C131.014 256.512 131.248 255.36 131.716 254.424C132.184 253.47 132.816 252.76 133.614 252.292C134.411 251.824 135.321 251.59 136.344 251.59C137.592 251.59 138.692 251.954 139.646 252.682C140.599 253.392 141.232 254.467 141.544 255.906L149.136 251.356L149.136 254.19ZM139.828 261.366L139.828 257.882C139.828 256.599 139.516 255.637 138.892 254.996C138.25 254.354 137.401 254.034 136.344 254.034C135.269 254.034 134.437 254.354 133.848 254.996C133.258 255.62 132.964 256.582 132.964 257.882L132.964 261.366L139.828 261.366ZM149.318 239.697C149.318 241.379 148.928 242.913 148.148 244.299C147.35 245.686 146.25 246.787 144.846 247.601C143.424 248.399 141.83 248.797 140.062 248.797C138.294 248.797 136.708 248.399 135.304 247.601C133.882 246.787 132.782 245.686 132.002 244.299C131.204 242.913 130.806 241.379 130.806 239.697C130.806 237.999 131.204 236.456 132.002 235.069C132.782 233.683 133.874 232.591 135.278 231.793C136.682 230.996 138.276 230.597 140.062 230.597C141.847 230.597 143.442 230.996 144.846 231.793C146.25 232.591 147.35 233.683 148.148 235.069C148.928 236.456 149.318 237.999 149.318 239.697ZM147.264 239.697C147.264 238.432 146.969 237.297 146.38 236.291C145.79 235.269 144.95 234.471 143.858 233.899C142.766 233.31 141.5 233.015 140.062 233.015C138.606 233.015 137.34 233.31 136.266 233.899C135.174 234.471 134.333 235.26 133.744 236.265C133.154 237.271 132.86 238.415 132.86 239.697C132.86 240.98 133.154 242.124 133.744 243.129C134.333 244.135 135.174 244.932 136.266 245.521C137.34 246.093 138.606 246.379 140.062 246.379C141.5 246.379 142.766 246.093 143.858 245.521C144.95 244.932 145.79 244.135 146.38 243.129C146.969 242.107 147.264 240.963 147.264 239.697ZM131.014 221.832C131.014 219.856 131.386 218.148 132.132 216.71C132.86 215.254 133.908 214.144 135.278 213.382C136.647 212.602 138.259 212.212 140.114 212.212C141.968 212.212 143.58 212.602 144.95 213.382C146.302 214.144 147.342 215.254 148.07 216.71C148.78 218.148 149.136 219.856 149.136 221.832L149.136 227.474L131.014 227.474L131.014 221.832ZM147.186 221.832C147.186 219.492 146.57 217.706 145.34 216.476C144.092 215.245 142.35 214.63 140.114 214.63C137.86 214.63 136.101 215.254 134.836 216.502C133.57 217.732 132.938 219.509 132.938 221.832L132.938 225.108L147.186 225.108L147.186 221.832ZM131.014 206.777L142.48 206.777C144.092 206.777 145.288 206.387 146.068 205.607C146.848 204.81 147.238 203.709 147.238 202.305C147.238 200.918 146.848 199.835 146.068 199.055C145.288 198.258 144.092 197.859 142.48 197.859L131.014 197.859L131.014 195.493L142.454 195.493C143.962 195.493 145.236 195.796 146.276 196.403C147.298 197.01 148.061 197.833 148.564 198.873C149.066 199.896 149.318 201.048 149.318 202.331C149.318 203.614 149.066 204.775 148.564 205.815C148.061 206.838 147.298 207.652 146.276 208.259C145.236 208.848 143.962 209.143 142.454 209.143L131.014 209.143L131.014 206.777ZM140.062 192.43C138.294 192.43 136.708 192.031 135.304 191.234C133.882 190.437 132.773 189.353 131.976 187.984C131.178 186.597 130.78 185.063 130.78 183.382C130.78 181.406 131.256 179.681 132.21 178.208C133.163 176.735 134.515 175.66 136.266 174.984L136.266 177.818C135.174 178.321 134.333 179.049 133.744 180.002C133.154 180.938 132.86 182.065 132.86 183.382C132.86 184.647 133.154 185.783 133.744 186.788C134.333 187.793 135.174 188.582 136.266 189.154C137.34 189.726 138.606 190.012 140.062 190.012C141.5 190.012 142.766 189.726 143.858 189.154C144.932 188.582 145.764 187.793 146.354 186.788C146.943 185.783 147.238 184.647 147.238 183.382C147.238 182.065 146.952 180.938 146.38 180.002C145.79 179.049 144.95 178.321 143.858 177.818L143.858 174.984C145.591 175.66 146.934 176.735 147.888 178.208C148.824 179.681 149.292 181.406 149.292 183.382C149.292 185.063 148.902 186.597 148.122 187.984C147.324 189.353 146.224 190.437 144.82 191.234C143.416 192.031 141.83 192.43 140.062 192.43ZM131.014 160.308L132.938 160.308L132.938 165.248L149.136 165.248L149.136 167.614L132.938 167.614L132.938 172.58L131.014 172.58L131.014 160.308ZM149.318 144.718C149.318 145.914 149.11 146.989 148.694 147.942C148.26 148.878 147.671 149.615 146.926 150.152C146.163 150.689 145.288 150.967 144.3 150.984L144.3 148.462C145.149 148.375 145.868 148.029 146.458 147.422C147.03 146.798 147.316 145.897 147.316 144.718C147.316 143.591 147.038 142.707 146.484 142.066C145.912 141.407 145.184 141.078 144.3 141.078C143.606 141.078 143.043 141.269 142.61 141.65C142.176 142.031 141.847 142.508 141.622 143.08C141.396 143.652 141.154 144.423 140.894 145.394C140.582 146.59 140.27 147.552 139.958 148.28C139.646 148.991 139.16 149.606 138.502 150.126C137.826 150.629 136.924 150.88 135.798 150.88C134.81 150.88 133.934 150.629 133.172 150.126C132.409 149.623 131.82 148.921 131.404 148.02C130.988 147.101 130.78 146.053 130.78 144.874C130.78 143.175 131.204 141.789 132.054 140.714C132.903 139.622 134.03 139.007 135.434 138.868L135.434 141.468C134.74 141.555 134.134 141.919 133.614 142.56C133.076 143.201 132.808 144.051 132.808 145.108C132.808 146.096 133.068 146.902 133.588 147.526C134.09 148.15 134.801 148.462 135.72 148.462C136.378 148.462 136.916 148.28 137.332 147.916C137.748 147.535 138.068 147.075 138.294 146.538C138.502 145.983 138.744 145.212 139.022 144.224C139.351 143.028 139.68 142.066 140.01 141.338C140.322 140.61 140.816 139.986 141.492 139.466C142.15 138.946 143.052 138.686 144.196 138.686C145.08 138.686 145.912 138.92 146.692 139.388C147.472 139.856 148.104 140.549 148.59 141.468C149.075 142.387 149.318 143.47 149.318 144.718ZM131.014 124.05L132.938 124.05L132.938 128.99L149.136 128.99L149.136 131.356L132.938 131.356L132.938 136.322L131.014 136.322L131.014 124.05ZM131.014 118.824L142.48 118.824C144.092 118.824 145.288 118.434 146.068 117.654C146.848 116.857 147.238 115.756 147.238 114.352C147.238 112.965 146.848 111.882 146.068 111.102C145.288 110.305 144.092 109.906 142.48 109.906L131.014 109.906L131.014 107.54L142.454 107.54C143.962 107.54 145.236 107.843 146.276 108.45C147.298 109.057 148.061 109.88 148.564 110.92C149.066 111.943 149.318 113.095 149.318 114.378C149.318 115.661 149.066 116.822 148.564 117.862C148.061 118.885 147.298 119.699 146.276 120.306C145.236 120.895 143.962 121.19 142.454 121.19L131.014 121.19L131.014 118.824ZM131.014 97.951C131.014 95.975 131.386 94.2676 132.132 92.829C132.86 91.373 133.908 90.2636 135.278 89.501C136.647 88.721 138.259 88.331 140.114 88.331C141.968 88.331 143.58 88.721 144.95 89.501C146.302 90.2636 147.342 91.373 148.07 92.829C148.78 94.2676 149.136 95.975 149.136 97.951L149.136 103.593L131.014 103.593L131.014 97.951ZM147.186 97.951C147.186 95.611 146.57 93.8256 145.34 92.595C144.092 91.3643 142.35 90.749 140.114 90.749C137.86 90.749 136.101 91.373 134.836 92.621C133.57 93.8516 132.938 95.6283 132.938 97.951L132.938 101.227L147.186 101.227L147.186 97.951ZM131.014 82.8442L149.136 82.8442L149.136 85.2102L131.014 85.2102L131.014 82.8442ZM149.318 70.5957C149.318 72.2771 148.928 73.8111 148.148 75.1977C147.35 76.5844 146.25 77.6851 144.846 78.4997C143.424 79.2971 141.83 79.6957 140.062 79.6957C138.294 79.6957 136.708 79.2971 135.304 78.4997C133.882 77.6851 132.782 76.5844 132.002 75.1977C131.204 73.8111 130.806 72.2771 130.806 70.5957C130.806 68.8971 131.204 67.3544 132.002 65.9677C132.782 64.5811 133.874 63.4891 135.278 62.6917C136.682 61.8944 138.276 61.4957 140.062 61.4957C141.847 61.4957 143.442 61.8944 144.846 62.6917C146.25 63.4891 147.35 64.5811 148.148 65.9677C148.928 67.3544 149.318 68.8971 149.318 70.5957ZM147.264 70.5957C147.264 69.3304 146.969 68.1951 146.38 67.1897C145.79 66.1671 144.95 65.3697 143.858 64.7977C142.766 64.2084 141.5 63.9137 140.062 63.9137C138.606 63.9137 137.34 64.2084 136.266 64.7977C135.174 65.3697 134.333 66.1584 133.744 67.1637C133.154 68.1691 132.86 69.3131 132.86 70.5957C132.86 71.8784 133.154 73.0224 133.744 74.0277C134.333 75.0331 135.174 75.8304 136.266 76.4197C137.34 76.9917 138.606 77.2777 140.062 77.2777C141.5 77.2777 142.766 76.9917 143.858 76.4197C144.95 75.8304 145.79 75.0331 146.38 74.0277C146.969 73.0051 147.264 71.8611 147.264 70.5957Z" fill="white"/>
</svg>
