<svg width="93" height="320" viewBox="0 0 93 320" fill="none" xmlns="http://www.w3.org/2000/svg">
<path d="M92.28 298.599C92.28 305.426 90.36 310.589 86.52 314.087C82.5947 317.586 77.0053 319.335 69.752 319.335L64.632 319.335L64.632 306.023L70.776 306.023C76.5787 306.023 79.48 303.591 79.48 298.727C79.48 296.338 78.7973 294.546 77.432 293.351C75.9813 292.071 73.6773 291.431 70.52 291.431C66.7653 291.431 63.48 292.285 60.664 293.991C57.7627 295.698 54.3067 298.855 50.296 303.463C45.176 309.266 40.568 313.319 36.472 315.623C32.2907 317.927 27.5973 319.079 22.392 319.079C15.3093 319.079 9.848 317.287 6.008 313.703C2.08266 310.119 0.119994 304.914 0.119994 298.087C0.119993 291.346 2.08266 286.269 6.00799 282.855C9.84799 279.357 15.3947 277.607 22.648 277.607L26.36 277.607L26.36 290.919L21.752 290.919C18.68 290.919 16.4613 291.517 15.096 292.711C13.6453 293.906 12.92 295.655 12.92 297.959C12.92 302.653 15.7787 304.999 21.496 304.999C24.7387 304.999 27.768 304.146 30.584 302.439C33.4 300.647 36.8133 297.447 40.824 292.839C45.944 286.951 50.5947 282.898 54.776 280.679C58.9573 278.461 63.864 277.351 69.496 277.351C76.8347 277.351 82.4667 279.186 86.392 282.855C90.3173 286.439 92.28 291.687 92.28 298.599ZM92.28 248.798C92.28 255.625 90.36 260.83 86.52 264.414C82.5947 267.998 77.0053 269.79 69.752 269.79L1.39999 269.79L1.39999 255.71L70.776 255.71C73.848 255.71 76.0667 255.113 77.432 253.918C78.7973 252.638 79.48 250.846 79.48 248.542C79.48 246.238 78.7973 244.489 77.432 243.294C76.0667 242.014 73.848 241.374 70.776 241.374L1.39999 241.374L1.39999 227.806L69.752 227.806C77.0053 227.806 82.5947 229.598 86.52 233.182C90.36 236.766 92.28 241.972 92.28 248.798ZM1.39999 217.778L1.39999 200.114L55.032 186.418L55.032 186.162L1.39999 186.162L1.39999 173.618L91 173.618L91 188.082L25.592 204.978L25.592 205.234L91 205.234L91 217.778L1.39999 217.778ZM1.39998 163.153L1.39998 142.289C1.39998 135.036 3.10665 129.745 6.51999 126.417C9.84798 123.089 15.0106 121.425 22.008 121.425L27.512 121.425C36.8133 121.425 42.7013 124.497 45.176 130.641L45.432 130.641C46.456 127.228 48.5467 124.839 51.704 123.473C54.8613 122.023 59.0853 121.297 64.376 121.297L80.12 121.297C82.68 121.297 84.7707 121.212 86.392 121.041C87.928 120.871 89.464 120.444 91 119.761L91 134.097C89.5493 134.609 88.184 134.951 86.904 135.121C85.624 135.292 83.32 135.377 79.992 135.377L63.608 135.377C59.512 135.377 56.6533 136.06 55.032 137.425C53.4107 138.705 52.6 140.967 52.6 144.209L52.6 149.073L91 149.073L91 163.153L1.39998 163.153ZM39.8 143.953C39.8 141.137 39.0747 139.047 37.624 137.681C36.1733 136.231 33.7413 135.505 30.328 135.505L23.416 135.505C20.1733 135.505 17.8267 136.103 16.376 137.297C14.9253 138.407 14.2 140.199 14.2 142.673L14.2 149.073L39.8 149.073L39.8 143.953ZM1.39998 111.528L1.39998 97.4484L91 97.4484L91 111.528L1.39998 111.528ZM92.28 68.5994C92.28 75.426 90.36 80.5887 86.52 84.0874C82.5947 87.586 77.0053 89.3354 69.752 89.3354L64.632 89.3354L64.632 76.0234L70.776 76.0234C76.5787 76.0234 79.48 73.5914 79.48 68.7274C79.48 66.338 78.7973 64.546 77.432 63.3514C75.9813 62.0714 73.6773 61.4314 70.52 61.4314C66.7653 61.4314 63.48 62.2847 60.664 63.9914C57.7626 65.698 54.3066 68.8554 50.296 73.4634C45.176 79.266 40.568 83.3194 36.472 85.6234C32.2906 87.9274 27.5973 89.0794 22.392 89.0794C15.3093 89.0794 9.84798 87.2874 6.00798 83.7034C2.08265 80.1194 0.119981 74.914 0.11998 68.0874C0.11998 61.346 2.08265 56.2687 6.00798 52.8554C9.84798 49.3567 15.3946 47.6074 22.648 47.6074L26.36 47.6074L26.36 60.9194L21.752 60.9194C18.68 60.9194 16.4613 61.5167 15.096 62.7114C13.6453 63.906 12.92 65.6554 12.92 67.9594C12.92 72.6527 15.7786 74.9994 21.496 74.9994C24.7387 74.9994 27.768 74.146 30.584 72.4394C33.4 70.6474 36.8133 67.4474 40.824 62.8394C45.944 56.9514 50.5946 52.898 54.776 50.6794C58.9573 48.4607 63.864 47.3514 69.496 47.3514C76.8346 47.3514 82.4667 49.186 86.392 52.8554C90.3173 56.4394 92.28 61.6874 92.28 68.5994ZM1.39998 39.2784L1.39998 0.878364L14.2 0.878363L14.2 25.1984L37.88 25.1984L37.88 5.87036L50.68 5.87036L50.68 25.1984L78.2 25.1984L78.2 0.878361L91 0.878361L91 39.2784L1.39998 39.2784Z" fill="white"/>
</svg>
